<svg xmlns="http://www.w3.org/2000/svg" viewBox="0 0 1076.95 160.27"><defs><style>.cls-1{fill:#fff;}</style></defs><title>Ресурс 2</title><g id="Слой_2" data-name="Слой 2"><g id="Слой_1-2" data-name="Слой 1"><path class="cls-1" d="M23.25,113.46,0,105.4,28.21,93.93,60.76,84,33.17,73.78,51.46.93H176.08l-18.6,45.26H89.9L84.63,66.65h69.44l-1.86,7.13L185.38,84l-38.13,9.92L74.4,107.88l-1.55,5.58L61.38,160H11.78Z"/><path class="cls-1" d="M186.93,113.77l-23.25-8.06,28.21-11.16,27.59-9.92-22.63-9.92L215.14,2.17h49.29L246.14,74.71l22.63,9.92-27.59,9.92-27.9,11.16,22.94,8.06L224.75,160H175.46Z"/><path class="cls-1" d="M247.07,132.68,262,113.15l6.82-8.37,5.58-7.13q24.48,21.71,48,21.7a14,14,0,0,0,7.59-1.86,5.65,5.65,0,0,0,2.95-5q0-1.86-23.87-4.34-18.3-1.86-22-3.41c-1-.62-1.35-1.13-.93-1.55a10,10,0,0,1,2.79-1.55,17.09,17.09,0,0,0,3.41-1.86c1.44-1,2.79-1.91,4-2.63a20.86,20.86,0,0,0,4-3.26q2.79-2.79,11.16-5.27a21.81,21.81,0,0,1,2.94-.93,10.49,10.49,0,0,0,3.57-1.55c.82-.62.72-1.34-.31-2.17-.83-.62-3.78-1.4-8.84-2.32s-8.32-1.5-9.76-1.71q-22.63-3.09-23.87-5.58-5-7.74-5-19.53A48.29,48.29,0,0,1,284,20.77a58.42,58.42,0,0,1,21.7-14.42A79.1,79.1,0,0,1,334.8,1.24a102.63,102.63,0,0,1,35.49,6.05,83.45,83.45,0,0,1,28.37,16.89L374.48,62.31a99.36,99.36,0,0,0-21.7-14.1q-12.4-6.06-22.94-6.05-10.23,0-10.23,5.89a4.89,4.89,0,0,0,1.55,3.87q1.54,1.39,7,3.73t14.11,5.73q16.42,6.83,24.8,13c.82.62,3.1,1.35,6.82,2.17s6.3,1.45,7.75,1.86q17.67,3.42,18.91,5.58,1.23,1.86-12.4,6.82a45.86,45.86,0,0,0-7.44,3.1q-1.24.93-9.61,4a103.4,103.4,0,0,0-9.77,3.87c-2.38,1.14-3.56,2.33-3.56,3.57q0,1.56,12.09,3.41,12.09,2.49,12.09,3.72-2.49,17.06-13.33,28.83A55.53,55.53,0,0,1,347,155.31a83.42,83.42,0,0,1-29.6,5A103.34,103.34,0,0,1,278.53,153,95.15,95.15,0,0,1,247.07,132.68Z"/><path class="cls-1" d="M396.8,113.77l-18-8.06,22.94-11.47,27.9-9.92L406.72,74.4,425,1.55h49.6l-14.26,55.8h45.26l14.26-55.8h49.29l-18,72.85,22.63,9.92-27.9,9.92q-3.42,1.86-11.32,5.74T523,105.71l18.29,8.06L529.48,160h-49.6l14.26-56.73H448.88L434.62,160H385.33Z"/><path class="cls-1" d="M724.31,86.49a52.76,52.76,0,0,1-7.6,4.34,27.22,27.22,0,0,0-6.51,3.41q-.62.63-6.51,2.79-7.12,2.79-11,4.65c-2.59,1.24-3.78,2.59-3.57,4q0,.93,12.09,2.79,13.63,1.86,13.64,3.1v1.86q-.61,20.78-18,33.48t-52.7,12.71H563.88l11.78-47.12-23.56-6.82,28.21-11.47,32.55-9.92L585.27,74.4,603.56,1.55H669q31.62,0,44,10.23t12.4,27a40.81,40.81,0,0,1-5.27,20.46A41.13,41.13,0,0,1,704.93,74.4a1,1,0,0,0-.62.93c0,1,1.4,1.91,4.19,2.63a32.6,32.6,0,0,1,3.87,1.09q3.11.32,11.78,4.65Q726.33,84.95,724.31,86.49Zm-72.08,23.56q-4.65-.93-8.68-2t-3.72-2q.93-3.4,6.82-6.2t5.89-3.1c0-.41-1.14-.62-3.41-.62H627.74l-22.32,9.61,18,7.75-1.55,6.2h23.87q11.47,0,16.74-6.2Q663.08,112.53,652.23,110.05ZM672.54,60a10.91,10.91,0,0,0,4.8-9.14q0-5-3.56-7.13t-11.63-2.17H641.38l-5.27,22h22.63Q667.73,63.55,672.54,60Z"/><path class="cls-1" d="M878.84,76c2.06.83,4.34,1.66,6.82,2.48l4.34,1.4a25.22,25.22,0,0,1,5,2c1,.62,1.44,1.24,1.24,1.86s-2,1.29-5.42,2-7,1.4-10.7,2q-6.83,1.24-9,1.86-7.76,3.1-9.3,4.34c-1.45,1-4.8,2.22-10.07,3.57s-10.81,2.63-16.59,3.87q-13,2.17-17.67,4c-.42,0,2,.73,7.13,2.17s7.44,2.28,6.82,2.48l9.92,3.72L866.13,160H805.68l-29.14-45.57L765.07,160H715.16q1.23-4.34,4.5-17.36t7.28-29.45c.21-.62-1.39-1.4-4.8-2.32s-5.64-1.5-6.67-1.71q-12.09-2.48-11.78-3.72c.21-1.24,1.6-2.37,4.19-3.41s6.86-2.48,12.86-4.34a81.78,81.78,0,0,0,11.16-3.72,88.11,88.11,0,0,1,15.19-6.2q9.6-3.09,12.71-4l-22.94-9.92L755.46.31h58q39.06,0,54.87,17.36,11.78,12.09,11.78,33.17a62.25,62.25,0,0,1-4,22.94C875.84,74.4,876.77,75.13,878.84,76ZM829.55,58a12.88,12.88,0,0,0-3.41-8.37Q821.49,45,811.57,45H793.9l-7.75,31.31h18q14.57,0,21.08-7.13A16.5,16.5,0,0,0,829.55,58Z"/><path class="cls-1" d="M1053.68,69.44a18.86,18.86,0,0,1-.31,4q0,1.25,3.87,2.48t8.22,2.48q4.33,1.25,8.06,2.48c2.48.83,3.61,1.55,3.41,2.17,0,.62-.73,1.24-2.17,1.86a52.63,52.63,0,0,1-6,2c-2.58.72-4.39,1.19-5.42,1.39q-12.4,3.11-12.71,4.65-.63,1.86-14.57,5.58-12.72,3.72-13.33,5.27c-.21.62.87,1.29,3.25,2s4.91,1.4,7.6,2q10.85,2.49,10.23,3.72a106.46,106.46,0,0,1-15.19,21.7,83.08,83.08,0,0,1-26.82,19.38,78.09,78.09,0,0,1-32.7,7q-25.11,0-43.4-13.17a64.78,64.78,0,0,1-24.8-34.88q-.32-1.23-12.71-3.72-5-.93-9.15-2t-4.49-2q-.32-1.55,11.16-5.27a72.21,72.21,0,0,0,8.52-2.79c2.59-1,3.77-2,3.57-2.79q0-.61,10.85-4.34a31,31,0,0,1,6.2-2.17c5-1.24,7.54-2.37,7.75-3.41,0-.62-1.24-1.34-3.72-2.17s-5.07-1.65-7.75-2.48c-.62-.2-1.76-.51-3.41-.93a42.27,42.27,0,0,1-5.58-1.86c-2.07-.82-3-1.55-2.79-2.17a88.31,88.31,0,0,1,23.56-47.12A82.76,82.76,0,0,1,949.67,7a78.11,78.11,0,0,1,32.71-7q20.76,0,37,9.15a65.17,65.17,0,0,1,25.27,25A70.26,70.26,0,0,1,1053.68,69.44Zm-69.44,42.47q1.54-.93-6.2-2.79c-.83-.2-2.54-.67-5.12-1.39s-3.87-1.5-3.87-2.33q0-1.55,14.57-5.27,16.43-3.72,17.36-6.2.62-1.86,13.33-5,14.25-3.72,14.57-5.89.3-1.23-11.47-4.34-4.35-1.23-8.22-2.48c-2.58-.82-3.87-1.55-3.87-2.17q0-12.7-6.82-20.77T979,45.26q-12.4,0-21.39,9.61-6.83,7.14-10.23,18.6c0,.42.56.93,1.7,1.55a29.94,29.94,0,0,0,5.43,2c2.48.72,4,1.19,4.65,1.39,2.68.83,5.27,1.66,7.75,2.48s3.72,1.55,3.72,2.17c-.21.42-1.5.93-3.88,1.55s-4.91,1.35-7.59,2.17q-10.23,4.35-12.4,6.2-1.86,1.56-9.92,4.65-5.58,2.17-8.37,3.56t-1.86,2.64q.61.93,4,2a64.42,64.42,0,0,0,9.45,2c4,.62,6.56,1,7.6,1.24q10.23,1.56,12.09,2.48a26.84,26.84,0,0,0,12.71,2.79A30.07,30.07,0,0,0,984.24,111.91Z"/></g></g></svg>